# xmcd CD database file
#
# Track frame offsets:
#	150
#	8630
#	23262
#	42657
#	54699
#	71306
#	76056
#	92483
#	113373
#	135973
#	153659
#
# Disc length: 2140 seconds
#
# Revision: 0
# Processed by: cddbd v1.4PL0 Copyright (c) Steve Scherf et al.
# Submitted via: CDex 1.50
#
DISCID=71085a0b
DTITLE=Manon Llwyd - Gwanneg
DYEAR=1900
DGENRE=Jazz
TTITLE0=penmorfa
TTITLE1=pwy sydd am rewl y dagrau?
TTITLE2=weithiau ti'n angel
TTITLE3=martin
TTITLE4=caru llawer
TTITLE5=prellwyd
TTITLE6='nabod
TTITLE7=aberdaron
TTITLE8=proffwyd y galon
TTITLE9=beth yw'r haf i mi
TTITLE10=penmorfa
EXTD=
EXTT0=
EXTT1=
EXTT2=
EXTT3=
EXTT4=
EXTT5=
EXTT6=
EXTT7=
EXTT8=
EXTT9=
EXTT10=
PLAYORDER=
